<mxfile host="app.diagrams.net" modified="2024-02-18T20:24:13.117Z" agent="Mozilla/5.0 (Macintosh; Intel Mac OS X 10_15_7) AppleWebKit/537.36 (KHTML, like Gecko) Chrome/114.0.0.0 Safari/537.36" version="23.1.5" etag="AvzNIeKAcTRF7OTBkagf" type="github">
  <diagram name="Page-1" id="8w_N9dU_z9xVemn2nfzO">
    <mxGraphModel>
      <root>
        <mxCell id="0" />
        <mxCell id="1" parent="0" />
      </root>
    </mxGraphModel>
  </diagram>
</mxfile>
